{
	"asset":{
		"generator":"Khronos glTF Blender I/O v3.5.30",
		"version":"2.0"
	},
	"extensionsUsed":[
		"KHR_materials_specular",
		"KHR_materials_ior"
	],
	"scene":0,
	"scenes":[
		{
			"name":"Scene",
			"nodes":[
				1,
				3,
				5,
				7,
				9
			]
		}
	],
	"nodes":[
		{
			"mesh":0,
			"name":"Cube#boxcollider.005"
		},
		{
			"children":[
				0
			],
			"mesh":1,
			"name":"Spine"
		},
		{
			"mesh":2,
			"name":"Cube#boxcollider.002"
		},
		{
			"children":[
				2
			],
			"mesh":3,
			"name":"CoverFront",
			"translation":[
				-0.011247225105762482,
				0,
				-0.020190924406051636
			]
		},
		{
			"mesh":4,
			"name":"Cube#boxcollider.001"
		},
		{
			"children":[
				4
			],
			"mesh":5,
			"name":"CoverBack",
			"translation":[
				-0.01124563068151474,
				0,
				0.020205575972795486
			]
		},
		{
			"mesh":6,
			"name":"Cube#boxcollider.003"
		},
		{
			"children":[
				6
			],
			"mesh":7,
			"name":"PagesBack",
			"translation":[
				-0.005711287260055542,
				0,
				-1.4808254491072148e-05
			]
		},
		{
			"mesh":8,
			"name":"Cube#boxcollider.004"
		},
		{
			"children":[
				8
			],
			"mesh":9,
			"name":"PagesFront",
			"translation":[
				-0.005711287260055542,
				0,
				2.7591748221311718e-05
			]
		}
	],
	"materials":[
		{
			"doubleSided":true,
			"extensions":{
				"KHR_materials_specular":{
					"specularColorFactor":[
						0.237135764977738,
						0.237135764977738,
						0.237135764977738
					]
				},
				"KHR_materials_ior":{
					"ior":1.4500000476837158
				}
			},
			"name":"Leather",
			"normalTexture":{
				"index":0
			},
			"pbrMetallicRoughness":{
				"baseColorTexture":{
					"index":1
				},
				"metallicFactor":0,
				"roughnessFactor":0.75
			}
		},
		{
			"alphaMode":"BLEND",
			"doubleSided":true,
			"extensions":{
				"KHR_materials_specular":{
					"specularColorFactor":[
						0.237135764977738,
						0.237135764977738,
						0.237135764977738
					]
				},
				"KHR_materials_ior":{
					"ior":1.4500000476837158
				}
			},
			"name":"Spine",
			"pbrMetallicRoughness":{
				"baseColorTexture":{
					"index":2
				},
				"metallicFactor":0,
				"roughnessFactor":0.75
			}
		},
		{
			"alphaMode":"BLEND",
			"doubleSided":true,
			"extensions":{
				"KHR_materials_specular":{
					"specularColorFactor":[
						0.237135764977738,
						0.237135764977738,
						0.237135764977738
					]
				},
				"KHR_materials_ior":{
					"ior":1.4500000476837158
				}
			},
			"name":"CoverFront",
			"pbrMetallicRoughness":{
				"baseColorTexture":{
					"index":3
				},
				"metallicFactor":0,
				"roughnessFactor":0.75
			}
		},
		{
			"alphaMode":"BLEND",
			"doubleSided":true,
			"extensions":{
				"KHR_materials_specular":{
					"specularColorFactor":[
						0.237135764977738,
						0.237135764977738,
						0.237135764977738
					]
				},
				"KHR_materials_ior":{
					"ior":1.4500000476837158
				}
			},
			"name":"CoverBack",
			"pbrMetallicRoughness":{
				"baseColorTexture":{
					"index":4
				},
				"metallicFactor":0,
				"roughnessFactor":0.75
			}
		},
		{
			"doubleSided":true,
			"extensions":{
				"KHR_materials_specular":{
					"specularColorFactor":[
						0,
						0,
						0
					]
				},
				"KHR_materials_ior":{
					"ior":1.4500000476837158
				}
			},
			"name":"Paper",
			"normalTexture":{
				"index":5
			},
			"pbrMetallicRoughness":{
				"baseColorTexture":{
					"index":6
				},
				"metallicFactor":0,
				"roughnessFactor":0.75
			}
		},
		{
			"doubleSided":true,
			"extensions":{
				"KHR_materials_specular":{
					"specularColorFactor":[
						0,
						0,
						0
					]
				},
				"KHR_materials_ior":{
					"ior":1.4500000476837158
				}
			},
			"name":"Lines",
			"normalTexture":{
				"index":7
			},
			"pbrMetallicRoughness":{
				"baseColorTexture":{
					"index":8
				},
				"metallicFactor":0,
				"roughnessFactor":0.75
			}
		},
		{
			"alphaMode":"BLEND",
			"doubleSided":true,
			"extensions":{
				"KHR_materials_specular":{
					"specularColorFactor":[
						0,
						0,
						0
					]
				},
				"KHR_materials_ior":{
					"ior":1.4500000476837158
				}
			},
			"name":"TextRight",
			"pbrMetallicRoughness":{
				"baseColorTexture":{
					"index":9
				},
				"metallicFactor":0,
				"roughnessFactor":0.75
			}
		},
		{
			"alphaMode":"BLEND",
			"doubleSided":true,
			"extensions":{
				"KHR_materials_specular":{
					"specularColorFactor":[
						0,
						0,
						0
					]
				},
				"KHR_materials_ior":{
					"ior":1.4500000476837158
				}
			},
			"name":"TextFront",
			"pbrMetallicRoughness":{
				"baseColorTexture":{
					"index":10
				},
				"metallicFactor":0,
				"roughnessFactor":0.75
			}
		}
	],
	"meshes":[
		{
			"name":"Cube#boxcollider.005",
			"primitives":[
				{
					"attributes":{
						"POSITION":0,
						"TEXCOORD_0":1,
						"NORMAL":2
					},
					"indices":3
				}
			]
		},
		{
			"name":"Cube.007",
			"primitives":[
				{
					"attributes":{
						"POSITION":4,
						"TEXCOORD_0":5,
						"NORMAL":6
					},
					"indices":7,
					"material":0
				},
				{
					"attributes":{
						"POSITION":8,
						"TEXCOORD_0":9,
						"NORMAL":10
					},
					"indices":11,
					"material":1
				}
			]
		},
		{
			"name":"Cube#boxcollider.002",
			"primitives":[
				{
					"attributes":{
						"POSITION":12,
						"TEXCOORD_0":13,
						"NORMAL":14
					},
					"indices":15
				}
			]
		},
		{
			"name":"Cube.008",
			"primitives":[
				{
					"attributes":{
						"POSITION":16,
						"TEXCOORD_0":17,
						"NORMAL":18
					},
					"indices":19,
					"material":0
				},
				{
					"attributes":{
						"POSITION":20,
						"TEXCOORD_0":21,
						"NORMAL":22
					},
					"indices":23,
					"material":2
				}
			]
		},
		{
			"name":"Cube#boxcollider.001",
			"primitives":[
				{
					"attributes":{
						"POSITION":24,
						"TEXCOORD_0":25,
						"NORMAL":26
					},
					"indices":27
				}
			]
		},
		{
			"name":"Cube.009",
			"primitives":[
				{
					"attributes":{
						"POSITION":28,
						"TEXCOORD_0":29,
						"NORMAL":30
					},
					"indices":31,
					"material":0
				},
				{
					"attributes":{
						"POSITION":32,
						"TEXCOORD_0":33,
						"NORMAL":34
					},
					"indices":35,
					"material":3
				}
			]
		},
		{
			"name":"Cube#boxcollider.003",
			"primitives":[
				{
					"attributes":{
						"POSITION":36,
						"TEXCOORD_0":37,
						"NORMAL":38
					},
					"indices":39
				}
			]
		},
		{
			"name":"Cube.010",
			"primitives":[
				{
					"attributes":{
						"POSITION":40,
						"TEXCOORD_0":41,
						"NORMAL":42
					},
					"indices":43,
					"material":4
				},
				{
					"attributes":{
						"POSITION":44,
						"TEXCOORD_0":45,
						"NORMAL":46
					},
					"indices":47,
					"material":5
				},
				{
					"attributes":{
						"POSITION":48,
						"TEXCOORD_0":49,
						"NORMAL":50
					},
					"indices":51,
					"material":6
				}
			]
		},
		{
			"name":"Cube#boxcollider.004",
			"primitives":[
				{
					"attributes":{
						"POSITION":52,
						"TEXCOORD_0":53,
						"NORMAL":54
					},
					"indices":55
				}
			]
		},
		{
			"name":"Cube.014",
			"primitives":[
				{
					"attributes":{
						"POSITION":56,
						"TEXCOORD_0":57,
						"NORMAL":58
					},
					"indices":43,
					"material":4
				},
				{
					"attributes":{
						"POSITION":59,
						"TEXCOORD_0":60,
						"NORMAL":61
					},
					"indices":47,
					"material":5
				},
				{
					"attributes":{
						"POSITION":62,
						"TEXCOORD_0":63,
						"NORMAL":64
					},
					"indices":51,
					"material":7
				}
			]
		}
	],
	"textures":[
		{
			"sampler":0,
			"source":0
		},
		{
			"sampler":0,
			"source":1
		},
		{
			"sampler":0,
			"source":2
		},
		{
			"sampler":0,
			"source":3
		},
		{
			"sampler":0,
			"source":4
		},
		{
			"sampler":0,
			"source":5
		},
		{
			"sampler":0,
			"source":6
		},
		{
			"sampler":0,
			"source":7
		},
		{
			"sampler":0,
			"source":8
		},
		{
			"sampler":0,
			"source":9
		},
		{
			"sampler":0,
			"source":10
		}
	],
	"images":[
		{
			"mimeType":"image/png",
			"name":"leather_n",
			"uri":"leather_n.png"
		},
		{
			"mimeType":"image/png",
			"name":"leather_a",
			"uri":"leather_a.png"
		},
		{
			"mimeType":"image/png",
			"name":"spine",
			"uri":"spine.png"
		},
		{
			"mimeType":"image/png",
			"name":"cover_front",
			"uri":"cover_front.png"
		},
		{
			"mimeType":"image/png",
			"name":"cover_back",
			"uri":"cover_back.png"
		},
		{
			"mimeType":"image/png",
			"name":"paper_n",
			"uri":"paper_n.png"
		},
		{
			"mimeType":"image/png",
			"name":"paper_a",
			"uri":"paper_a.png"
		},
		{
			"mimeType":"image/png",
			"name":"paper_lines_n",
			"uri":"paper_lines_n.png"
		},
		{
			"mimeType":"image/png",
			"name":"paper_lines_a",
			"uri":"paper_lines_a.png"
		},
		{
			"mimeType":"image/png",
			"name":"text_right",
			"uri":"text_right.png"
		},
		{
			"mimeType":"image/png",
			"name":"text_left",
			"uri":"text_left.png"
		}
	],
	"accessors":[
		{
			"bufferView":0,
			"componentType":5126,
			"count":24,
			"max":[
				-1.2814998626708984e-06,
				0.20053723454475403,
				0.026552002876996994
			],
			"min":[
				-0.011355593800544739,
				-0.20053723454475403,
				-0.02653784677386284
			],
			"type":"VEC3"
		},
		{
			"bufferView":1,
			"componentType":5126,
			"count":24,
			"type":"VEC2"
		},
		{
			"bufferView":2,
			"componentType":5126,
			"count":24,
			"type":"VEC3"
		},
		{
			"bufferView":3,
			"componentType":5123,
			"count":36,
			"type":"SCALAR"
		},
		{
			"bufferView":4,
			"componentType":5126,
			"count":200,
			"max":[
				-2.2470951080322266e-05,
				0.2004418969154358,
				0.026534944772720337
			],
			"min":[
				-0.011247217655181885,
				-0.2004418969154358,
				-0.026520326733589172
			],
			"type":"VEC3"
		},
		{
			"bufferView":5,
			"componentType":5126,
			"count":200,
			"type":"VEC2"
		},
		{
			"bufferView":6,
			"componentType":5126,
			"count":200,
			"type":"VEC3"
		},
		{
			"bufferView":7,
			"componentType":5123,
			"count":708,
			"type":"SCALAR"
		},
		{
			"bufferView":8,
			"componentType":5126,
			"count":20,
			"max":[
				-1.2814998626708984e-06,
				0.19938188791275024,
				0.026534944772720337
			],
			"min":[
				-0.010602772235870361,
				-0.19938188791275024,
				-0.026520326733589172
			],
			"type":"VEC3"
		},
		{
			"bufferView":9,
			"componentType":5126,
			"count":20,
			"type":"VEC2"
		},
		{
			"bufferView":10,
			"componentType":5126,
			"count":20,
			"type":"VEC3"
		},
		{
			"bufferView":11,
			"componentType":5123,
			"count":54,
			"type":"SCALAR"
		},
		{
			"bufferView":12,
			"componentType":5126,
			"count":24,
			"max":[
				0,
				0.2006397247314453,
				3.618001937866211e-05
			],
			"min":[
				-0.25497251749038696,
				-0.2006397247314453,
				-0.006383952684700489
			],
			"type":"VEC3"
		},
		{
			"bufferView":13,
			"componentType":5126,
			"count":24,
			"type":"VEC2"
		},
		{
			"bufferView":14,
			"componentType":5126,
			"count":24,
			"type":"VEC3"
		},
		{
			"bufferView":15,
			"componentType":5123,
			"count":36,
			"type":"SCALAR"
		},
		{
			"bufferView":16,
			"componentType":5126,
			"count":76,
			"max":[
				0.0006232559680938721,
				0.2004418969154358,
				3.618001937866211e-05
			],
			"min":[
				-0.25603264570236206,
				-0.2004418969154358,
				-0.00632939487695694
			],
			"type":"VEC3"
		},
		{
			"bufferView":17,
			"componentType":5126,
			"count":76,
			"type":"VEC2"
		},
		{
			"bufferView":18,
			"componentType":5126,
			"count":76,
			"type":"VEC3"
		},
		{
			"bufferView":19,
			"componentType":5123,
			"count":228,
			"type":"SCALAR"
		},
		{
			"bufferView":20,
			"componentType":5126,
			"count":4,
			"max":[
				0.0006232559680938721,
				0.19938188791275024,
				-0.006344892084598541
			],
			"min":[
				-0.2549726366996765,
				-0.19938188791275024,
				-0.006350599229335785
			],
			"type":"VEC3"
		},
		{
			"bufferView":21,
			"componentType":5126,
			"count":4,
			"type":"VEC2"
		},
		{
			"bufferView":22,
			"componentType":5126,
			"count":4,
			"type":"VEC3"
		},
		{
			"bufferView":23,
			"componentType":5123,
			"count":6,
			"type":"SCALAR"
		},
		{
			"bufferView":24,
			"componentType":5126,
			"count":24,
			"max":[
				0.0006235241889953613,
				0.20073695480823517,
				0.0063562579452991486
			],
			"min":[
				-0.2549723982810974,
				-0.20073695480823517,
				-0.00011384277604520321
			],
			"type":"VEC3"
		},
		{
			"bufferView":25,
			"componentType":5126,
			"count":24,
			"type":"VEC2"
		},
		{
			"bufferView":26,
			"componentType":5126,
			"count":24,
			"type":"VEC3"
		},
		{
			"bufferView":27,
			"componentType":5123,
			"count":36,
			"type":"SCALAR"
		},
		{
			"bufferView":28,
			"componentType":5126,
			"count":76,
			"max":[
				0.0006235241889953613,
				0.2004418969154358,
				0.0063350610435009
			],
			"min":[
				-0.2560325264930725,
				-0.2004418969154358,
				-2.4829059839248657e-05
			],
			"type":"VEC3"
		},
		{
			"bufferView":29,
			"componentType":5126,
			"count":76,
			"type":"VEC2"
		},
		{
			"bufferView":30,
			"componentType":5126,
			"count":76,
			"type":"VEC3"
		},
		{
			"bufferView":31,
			"componentType":5123,
			"count":228,
			"type":"SCALAR"
		},
		{
			"bufferView":32,
			"componentType":5126,
			"count":4,
			"max":[
				0.0006235241889953613,
				0.19938188791275024,
				0.0063562579452991486
			],
			"min":[
				-0.2549723982810974,
				-0.19938188791275024,
				0.006350550800561905
			],
			"type":"VEC3"
		},
		{
			"bufferView":33,
			"componentType":5126,
			"count":4,
			"type":"VEC2"
		},
		{
			"bufferView":34,
			"componentType":5126,
			"count":4,
			"type":"VEC3"
		},
		{
			"bufferView":35,
			"componentType":5123,
			"count":6,
			"type":"SCALAR"
		},
		{
			"bufferView":36,
			"componentType":5126,
			"count":24,
			"max":[
				0,
				0.19637298583984375,
				0.02027556672692299
			],
			"min":[
				-0.2584279477596283,
				-0.19637298583984375,
				2.1199997718213126e-05
			],
			"type":"VEC3"
		},
		{
			"bufferView":37,
			"componentType":5126,
			"count":24,
			"type":"VEC2"
		},
		{
			"bufferView":38,
			"componentType":5126,
			"count":24,
			"type":"VEC3"
		},
		{
			"bufferView":39,
			"componentType":5123,
			"count":36,
			"type":"SCALAR"
		},
		{
			"bufferView":40,
			"componentType":5126,
			"count":22,
			"max":[
				0,
				0.19637298583984375,
				0.02027556672692299
			],
			"min":[
				-0.2584279477596283,
				-0.19637298583984375,
				-0.008418519049882889
			],
			"type":"VEC3"
		},
		{
			"bufferView":41,
			"componentType":5126,
			"count":22,
			"type":"VEC2"
		},
		{
			"bufferView":42,
			"componentType":5126,
			"count":22,
			"type":"VEC3"
		},
		{
			"bufferView":43,
			"componentType":5123,
			"count":54,
			"type":"SCALAR"
		},
		{
			"bufferView":44,
			"componentType":5126,
			"count":44,
			"max":[
				0,
				0.19637298583984375,
				0.02027556672692299
			],
			"min":[
				-0.2584279477596283,
				-0.19637298583984375,
				-0.008418519049882889
			],
			"type":"VEC3"
		},
		{
			"bufferView":45,
			"componentType":5126,
			"count":44,
			"type":"VEC2"
		},
		{
			"bufferView":46,
			"componentType":5126,
			"count":44,
			"type":"VEC3"
		},
		{
			"bufferView":47,
			"componentType":5123,
			"count":150,
			"type":"SCALAR"
		},
		{
			"bufferView":48,
			"componentType":5126,
			"count":18,
			"max":[
				0,
				0.19637298583984375,
				0
			],
			"min":[
				-0.257531076669693,
				-0.19637298583984375,
				-0.008439715951681137
			],
			"type":"VEC3"
		},
		{
			"bufferView":49,
			"componentType":5126,
			"count":18,
			"type":"VEC2"
		},
		{
			"bufferView":50,
			"componentType":5126,
			"count":18,
			"type":"VEC3"
		},
		{
			"bufferView":51,
			"componentType":5123,
			"count":48,
			"type":"SCALAR"
		},
		{
			"bufferView":52,
			"componentType":5126,
			"count":24,
			"max":[
				0,
				0.19635337591171265,
				-2.1170357285882346e-05
			],
			"min":[
				-0.2584279477596283,
				-0.19635337591171265,
				-0.020275602117180824
			],
			"type":"VEC3"
		},
		{
			"bufferView":53,
			"componentType":5126,
			"count":24,
			"type":"VEC2"
		},
		{
			"bufferView":54,
			"componentType":5126,
			"count":24,
			"type":"VEC3"
		},
		{
			"bufferView":55,
			"componentType":5123,
			"count":36,
			"type":"SCALAR"
		},
		{
			"bufferView":56,
			"componentType":5126,
			"count":22,
			"max":[
				0,
				0.19635337591171265,
				0.008418546989560127
			],
			"min":[
				-0.2584279477596283,
				-0.19635337591171265,
				-0.020275602117180824
			],
			"type":"VEC3"
		},
		{
			"bufferView":57,
			"componentType":5126,
			"count":22,
			"type":"VEC2"
		},
		{
			"bufferView":58,
			"componentType":5126,
			"count":22,
			"type":"VEC3"
		},
		{
			"bufferView":59,
			"componentType":5126,
			"count":44,
			"max":[
				0,
				0.19635337591171265,
				0.008418546989560127
			],
			"min":[
				-0.2584279477596283,
				-0.19635337591171265,
				-0.020275602117180824
			],
			"type":"VEC3"
		},
		{
			"bufferView":60,
			"componentType":5126,
			"count":44,
			"type":"VEC2"
		},
		{
			"bufferView":61,
			"componentType":5126,
			"count":44,
			"type":"VEC3"
		},
		{
			"bufferView":62,
			"componentType":5126,
			"count":18,
			"max":[
				0,
				0.19635337591171265,
				0.008439747616648674
			],
			"min":[
				-0.257531076669693,
				-0.19635337591171265,
				-2.9647708288393915e-08
			],
			"type":"VEC3"
		},
		{
			"bufferView":63,
			"componentType":5126,
			"count":18,
			"type":"VEC2"
		},
		{
			"bufferView":64,
			"componentType":5126,
			"count":18,
			"type":"VEC3"
		}
	],
	"bufferViews":[
		{
			"buffer":0,
			"byteLength":288,
			"byteOffset":0,
			"target":34962
		},
		{
			"buffer":0,
			"byteLength":192,
			"byteOffset":288,
			"target":34962
		},
		{
			"buffer":0,
			"byteLength":288,
			"byteOffset":480,
			"target":34962
		},
		{
			"buffer":0,
			"byteLength":72,
			"byteOffset":768,
			"target":34963
		},
		{
			"buffer":0,
			"byteLength":2400,
			"byteOffset":840,
			"target":34962
		},
		{
			"buffer":0,
			"byteLength":1600,
			"byteOffset":3240,
			"target":34962
		},
		{
			"buffer":0,
			"byteLength":2400,
			"byteOffset":4840,
			"target":34962
		},
		{
			"buffer":0,
			"byteLength":1416,
			"byteOffset":7240,
			"target":34963
		},
		{
			"buffer":0,
			"byteLength":240,
			"byteOffset":8656,
			"target":34962
		},
		{
			"buffer":0,
			"byteLength":160,
			"byteOffset":8896,
			"target":34962
		},
		{
			"buffer":0,
			"byteLength":240,
			"byteOffset":9056,
			"target":34962
		},
		{
			"buffer":0,
			"byteLength":108,
			"byteOffset":9296,
			"target":34963
		},
		{
			"buffer":0,
			"byteLength":288,
			"byteOffset":9404,
			"target":34962
		},
		{
			"buffer":0,
			"byteLength":192,
			"byteOffset":9692,
			"target":34962
		},
		{
			"buffer":0,
			"byteLength":288,
			"byteOffset":9884,
			"target":34962
		},
		{
			"buffer":0,
			"byteLength":72,
			"byteOffset":10172,
			"target":34963
		},
		{
			"buffer":0,
			"byteLength":912,
			"byteOffset":10244,
			"target":34962
		},
		{
			"buffer":0,
			"byteLength":608,
			"byteOffset":11156,
			"target":34962
		},
		{
			"buffer":0,
			"byteLength":912,
			"byteOffset":11764,
			"target":34962
		},
		{
			"buffer":0,
			"byteLength":456,
			"byteOffset":12676,
			"target":34963
		},
		{
			"buffer":0,
			"byteLength":48,
			"byteOffset":13132,
			"target":34962
		},
		{
			"buffer":0,
			"byteLength":32,
			"byteOffset":13180,
			"target":34962
		},
		{
			"buffer":0,
			"byteLength":48,
			"byteOffset":13212,
			"target":34962
		},
		{
			"buffer":0,
			"byteLength":12,
			"byteOffset":13260,
			"target":34963
		},
		{
			"buffer":0,
			"byteLength":288,
			"byteOffset":13272,
			"target":34962
		},
		{
			"buffer":0,
			"byteLength":192,
			"byteOffset":13560,
			"target":34962
		},
		{
			"buffer":0,
			"byteLength":288,
			"byteOffset":13752,
			"target":34962
		},
		{
			"buffer":0,
			"byteLength":72,
			"byteOffset":14040,
			"target":34963
		},
		{
			"buffer":0,
			"byteLength":912,
			"byteOffset":14112,
			"target":34962
		},
		{
			"buffer":0,
			"byteLength":608,
			"byteOffset":15024,
			"target":34962
		},
		{
			"buffer":0,
			"byteLength":912,
			"byteOffset":15632,
			"target":34962
		},
		{
			"buffer":0,
			"byteLength":456,
			"byteOffset":16544,
			"target":34963
		},
		{
			"buffer":0,
			"byteLength":48,
			"byteOffset":17000,
			"target":34962
		},
		{
			"buffer":0,
			"byteLength":32,
			"byteOffset":17048,
			"target":34962
		},
		{
			"buffer":0,
			"byteLength":48,
			"byteOffset":17080,
			"target":34962
		},
		{
			"buffer":0,
			"byteLength":12,
			"byteOffset":17128,
			"target":34963
		},
		{
			"buffer":0,
			"byteLength":288,
			"byteOffset":17140,
			"target":34962
		},
		{
			"buffer":0,
			"byteLength":192,
			"byteOffset":17428,
			"target":34962
		},
		{
			"buffer":0,
			"byteLength":288,
			"byteOffset":17620,
			"target":34962
		},
		{
			"buffer":0,
			"byteLength":72,
			"byteOffset":17908,
			"target":34963
		},
		{
			"buffer":0,
			"byteLength":264,
			"byteOffset":17980,
			"target":34962
		},
		{
			"buffer":0,
			"byteLength":176,
			"byteOffset":18244,
			"target":34962
		},
		{
			"buffer":0,
			"byteLength":264,
			"byteOffset":18420,
			"target":34962
		},
		{
			"buffer":0,
			"byteLength":108,
			"byteOffset":18684,
			"target":34963
		},
		{
			"buffer":0,
			"byteLength":528,
			"byteOffset":18792,
			"target":34962
		},
		{
			"buffer":0,
			"byteLength":352,
			"byteOffset":19320,
			"target":34962
		},
		{
			"buffer":0,
			"byteLength":528,
			"byteOffset":19672,
			"target":34962
		},
		{
			"buffer":0,
			"byteLength":300,
			"byteOffset":20200,
			"target":34963
		},
		{
			"buffer":0,
			"byteLength":216,
			"byteOffset":20500,
			"target":34962
		},
		{
			"buffer":0,
			"byteLength":144,
			"byteOffset":20716,
			"target":34962
		},
		{
			"buffer":0,
			"byteLength":216,
			"byteOffset":20860,
			"target":34962
		},
		{
			"buffer":0,
			"byteLength":96,
			"byteOffset":21076,
			"target":34963
		},
		{
			"buffer":0,
			"byteLength":288,
			"byteOffset":21172,
			"target":34962
		},
		{
			"buffer":0,
			"byteLength":192,
			"byteOffset":21460,
			"target":34962
		},
		{
			"buffer":0,
			"byteLength":288,
			"byteOffset":21652,
			"target":34962
		},
		{
			"buffer":0,
			"byteLength":72,
			"byteOffset":21940,
			"target":34963
		},
		{
			"buffer":0,
			"byteLength":264,
			"byteOffset":22012,
			"target":34962
		},
		{
			"buffer":0,
			"byteLength":176,
			"byteOffset":22276,
			"target":34962
		},
		{
			"buffer":0,
			"byteLength":264,
			"byteOffset":22452,
			"target":34962
		},
		{
			"buffer":0,
			"byteLength":528,
			"byteOffset":22716,
			"target":34962
		},
		{
			"buffer":0,
			"byteLength":352,
			"byteOffset":23244,
			"target":34962
		},
		{
			"buffer":0,
			"byteLength":528,
			"byteOffset":23596,
			"target":34962
		},
		{
			"buffer":0,
			"byteLength":216,
			"byteOffset":24124,
			"target":34962
		},
		{
			"buffer":0,
			"byteLength":144,
			"byteOffset":24340,
			"target":34962
		},
		{
			"buffer":0,
			"byteLength":216,
			"byteOffset":24484,
			"target":34962
		}
	],
	"samplers":[
		{
			"magFilter":9729,
			"minFilter":9987
		}
	],
	"buffers":[
		{
			"byteLength":24700,
			"uri":"book.bin"
		}
	]
}
